<svg width="20" height="24" viewBox="0 0 20 24" fill="none" xmlns="http://www.w3.org/2000/svg">
<path d="M10.3206 11.7301C10.9623 11.7301 11.5116 11.5017 11.9686 11.0447C12.4255 10.5878 12.654 10.0385 12.654 9.39681C12.654 8.75514 12.4255 8.20584 11.9686 7.74889C11.5116 7.29195 10.9623 7.06348 10.3206 7.06348C9.67897 7.06348 9.12967 7.29195 8.67272 7.74889C8.21578 8.20584 7.98731 8.75514 7.98731 9.39681C7.98731 10.0385 8.21578 10.5878 8.67272 11.0447C9.12967 11.5017 9.67897 11.7301 10.3206 11.7301ZM10.3206 20.3051C12.6929 18.1274 14.4526 16.1489 15.5998 14.3697C16.747 12.5906 17.3206 11.0107 17.3206 9.63014C17.3206 7.5107 16.6449 5.77528 15.2936 4.42389C13.9422 3.0725 12.2845 2.39681 10.3206 2.39681C8.35675 2.39681 6.69911 3.0725 5.34772 4.42389C3.99633 5.77528 3.32064 7.5107 3.32064 9.63014C3.32064 11.0107 3.89425 12.5906 5.04147 14.3697C6.18869 16.1489 7.94842 18.1274 10.3206 20.3051ZM10.3206 23.3968C7.19008 20.7329 4.85189 18.2586 3.30605 15.9739C1.76022 13.6892 0.987305 11.5746 0.987305 9.63014C0.987305 6.71348 1.9255 4.38986 3.80189 2.65931C5.67828 0.928754 7.85119 0.0634766 10.3206 0.0634766C12.7901 0.0634766 14.963 0.928754 16.8394 2.65931C18.7158 4.38986 19.654 6.71348 19.654 9.63014C19.654 11.5746 18.8811 13.6892 17.3352 15.9739C15.7894 18.2586 13.4512 20.7329 10.3206 23.3968Z" fill="#349094"/>
</svg>
