<svg width="38" height="38" viewBox="0 0 38 38" fill="none" xmlns="http://www.w3.org/2000/svg">
<path d="M19 38C17.6182 36.7658 16.1212 35.8077 14.5091 35.1256C12.897 34.4436 11.2273 34.1026 9.5 34.1026C8.29091 34.1026 7.10341 34.2812 5.9375 34.6385C4.77159 34.9957 3.65606 35.4991 2.59091 36.1487C1.98636 36.506 1.40341 36.4897 0.842045 36.1C0.280682 35.7103 0 35.1419 0 34.3949V10.9128C0 10.5556 0.0791667 10.2145 0.2375 9.88974C0.395833 9.56496 0.633333 9.32137 0.95 9.15897C2.27424 8.37949 3.65606 7.79487 5.09545 7.40513C6.53485 7.01538 8.00303 6.82051 9.5 6.82051C11.1697 6.82051 12.8034 7.0641 14.4011 7.55128C15.9989 8.03846 17.5318 8.76923 19 9.74359V33.3231C20.4682 32.2838 22.0083 31.5043 23.6205 30.9846C25.2326 30.465 26.8591 30.2051 28.5 30.2051C29.5364 30.2051 30.5511 30.3026 31.5443 30.4974C32.5375 30.6923 33.5379 30.9846 34.5455 31.3744V7.98974C34.9773 8.15214 35.4019 8.32265 35.8193 8.50128C36.2367 8.67991 36.647 8.89915 37.05 9.15897C37.3667 9.32137 37.6042 9.56496 37.7625 9.88974C37.9208 10.2145 38 10.5556 38 10.9128V34.3949C38 35.1419 37.7193 35.7103 37.158 36.1C36.5966 36.4897 36.0136 36.506 35.4091 36.1487C34.3439 35.4991 33.2284 34.9957 32.0625 34.6385C30.8966 34.2812 29.7091 34.1026 28.5 34.1026C26.7727 34.1026 25.103 34.4436 23.4909 35.1256C21.8788 35.8077 20.3818 36.7658 19 38ZM22.4545 28.2564V9.74359L31.0909 0V19.4872L22.4545 28.2564ZM15.5455 31.4231V12.1308C14.5955 11.6761 13.6095 11.3269 12.5875 11.0833C11.5655 10.8397 10.5364 10.7179 9.5 10.7179C8.43485 10.7179 7.39848 10.8316 6.39091 11.059C5.38333 11.2863 4.40455 11.6274 3.45455 12.0821V31.4231C4.46212 31.0009 5.4625 30.6923 6.45568 30.4974C7.44886 30.3026 8.46364 30.2051 9.5 30.2051C10.5364 30.2051 11.5511 30.3026 12.5443 30.4974C13.5375 30.6923 14.5379 31.0009 15.5455 31.4231Z" fill="black"/>
</svg>
