<svg width="38" height="38" viewBox="0 0 38 38" fill="none" xmlns="http://www.w3.org/2000/svg">
<path d="M10.5556 31.6667H13.7222V27.4444H17.9444V24.2778H13.7222V20.0556H10.5556V24.2778H6.33333V27.4444H10.5556V31.6667ZM21.1111 30.0833H31.6667V26.9167H21.1111V30.0833ZM21.1111 24.8056H31.6667V21.6389H21.1111V24.8056ZM23.4333 16.7833L26.3889 13.8278L29.3444 16.7833L31.5611 14.5667L28.6056 11.5056L31.5611 8.55L29.3444 6.33333L26.3889 9.28889L23.4333 6.33333L21.2167 8.55L24.1722 11.5056L21.2167 14.5667L23.4333 16.7833ZM6.86111 13.0889H17.4167V9.92222H6.86111V13.0889ZM4.22222 38C3.06111 38 2.06713 37.5866 1.24028 36.7597C0.413426 35.9329 0 34.9389 0 33.7778V4.22222C0 3.06111 0.413426 2.06713 1.24028 1.24028C2.06713 0.413426 3.06111 0 4.22222 0H33.7778C34.9389 0 35.9329 0.413426 36.7597 1.24028C37.5866 2.06713 38 3.06111 38 4.22222V33.7778C38 34.9389 37.5866 35.9329 36.7597 36.7597C35.9329 37.5866 34.9389 38 33.7778 38H4.22222ZM4.22222 33.7778H33.7778V4.22222H4.22222V33.7778Z" fill="black"/>
</svg>
