<svg width="24" height="20" viewBox="0 0 24 20" fill="none" xmlns="http://www.w3.org/2000/svg">
<path d="M2.3265 19.0632C1.68483 19.0632 1.13553 18.8347 0.678581 18.3777C0.221636 17.9208 -0.00683594 17.3715 -0.00683594 16.7298V2.72982C-0.00683594 2.08815 0.221636 1.53885 0.678581 1.0819C1.13553 0.624957 1.68483 0.396484 2.3265 0.396484H20.9932C21.6348 0.396484 22.1841 0.624957 22.6411 1.0819C23.098 1.53885 23.3265 2.08815 23.3265 2.72982V16.7298C23.3265 17.3715 23.098 17.9208 22.6411 18.3777C22.1841 18.8347 21.6348 19.0632 20.9932 19.0632H2.3265ZM11.6598 10.8965L2.3265 5.06315V16.7298H20.9932V5.06315L11.6598 10.8965ZM11.6598 8.56315L20.9932 2.72982H2.3265L11.6598 8.56315ZM2.3265 5.06315V2.72982V16.7298V5.06315Z" fill="#349094"/>
</svg>
