<svg width="20" height="20" viewBox="0 0 20 20" fill="none" xmlns="http://www.w3.org/2000/svg">
<path d="M7.03411 2.46798C6.78347 1.86254 6.12269 1.54029 5.49121 1.71281L2.62675 2.49402C2.06037 2.65027 1.6665 3.16457 1.6665 3.75048C1.6665 11.8035 8.19616 18.3332 16.2492 18.3332C16.8351 18.3332 17.3494 17.9393 17.5056 17.3729L18.2869 14.5085C18.4594 13.877 18.1371 13.2162 17.5317 12.9656L14.4068 11.6635C13.8763 11.4422 13.261 11.5952 12.8997 12.0411L11.5847 13.6459C9.29312 12.5619 7.43773 10.7066 6.3538 8.41499L7.95854 7.1032C8.40449 6.73863 8.55748 6.12668 8.33613 5.5961L7.03411 2.47124V2.46798Z" stroke="#349094" stroke-width="2.5"/>
</svg>
