<svg width="22" height="22" viewBox="0 0 22 22" fill="none" xmlns="http://www.w3.org/2000/svg">
<path d="M19.1667 10.73C19.1667 8.45498 18.3743 6.52512 16.7896 4.9404C15.2049 3.35567 13.275 2.56331 11 2.56331V0.22998C12.4583 0.22998 13.8243 0.507064 15.0979 1.06123C16.3715 1.6154 17.4799 2.36401 18.4229 3.30706C19.366 4.25012 20.1146 5.35845 20.6688 6.63206C21.2229 7.90567 21.5 9.27165 21.5 10.73H19.1667ZM14.5 10.73C14.5 9.75776 14.1597 8.93137 13.4792 8.25081C12.7986 7.57026 11.9722 7.22998 11 7.22998V4.89665C12.6139 4.89665 13.9896 5.4654 15.1271 6.6029C16.2646 7.7404 16.8333 9.11609 16.8333 10.73H14.5ZM20.275 21.23C17.8444 21.23 15.4431 20.7001 13.0708 19.6404C10.6986 18.5807 8.54028 17.0786 6.59583 15.1341C4.65139 13.1897 3.14931 11.0314 2.08958 8.65915C1.02986 6.28692 0.5 3.88554 0.5 1.45498C0.5 1.10498 0.616667 0.813314 0.85 0.57998C1.08333 0.346647 1.375 0.22998 1.725 0.22998H6.45C6.72222 0.22998 6.96528 0.322342 7.17917 0.507064C7.39306 0.691786 7.51944 0.910536 7.55833 1.16331L8.31667 5.24665C8.35556 5.55776 8.34583 5.82026 8.2875 6.03415C8.22917 6.24804 8.12222 6.43276 7.96667 6.58831L5.1375 9.44665C5.52639 10.1661 5.98819 10.8612 6.52292 11.5321C7.05764 12.2029 7.64583 12.8494 8.2875 13.4716C8.89028 14.0744 9.52222 14.6335 10.1833 15.1487C10.8444 15.664 11.5444 16.1355 12.2833 16.5633L15.025 13.8216C15.2 13.6466 15.4285 13.5154 15.7104 13.4279C15.9924 13.3404 16.2694 13.3161 16.5417 13.355L20.5667 14.1716C20.8389 14.2494 21.0625 14.3904 21.2375 14.5946C21.4125 14.7987 21.5 15.0272 21.5 15.28V20.005C21.5 20.355 21.3833 20.6466 21.15 20.88C20.9167 21.1133 20.625 21.23 20.275 21.23ZM4.02917 7.22998L5.95417 5.30498L5.45833 2.56331H2.8625C2.95972 3.36054 3.09583 4.14804 3.27083 4.92581C3.44583 5.70359 3.69861 6.47165 4.02917 7.22998ZM14.4708 17.6716C15.2292 18.0022 16.0021 18.2647 16.7896 18.4591C17.5771 18.6536 18.3694 18.78 19.1667 18.8383V16.2716L16.425 15.7175L14.4708 17.6716Z" fill="#349094"/>
</svg>
